<svg xmlns="http://www.w3.org/2000/svg" width="166.17" height="122.158" viewBox="0 0 166.17 122.158">
  <g id="Group_1618" data-name="Group 1618" transform="translate(-678.262 -517.093)">
    <path id="Path_1213" data-name="Path 1213" d="M679.762,637.751v-29.79a13,13,0,0,1,12.979-13.033h26.145a12.322,12.322,0,0,1,6.026,1.583,15.017,15.017,0,0,1,4.914,4.375,36.832,36.832,0,0,0,13.721,12.1,38.817,38.817,0,0,0,49.507-12.1,15.365,15.365,0,0,1,4.821-4.375,11.808,11.808,0,0,1,5.933-1.583h26.145a13,13,0,0,1,12.979,13.033v29.79H794.723V615.595a48.1,48.1,0,0,1-15.3,9.5,49.451,49.451,0,0,1-18.079,3.352,48.728,48.728,0,0,1-17.986-3.352,50.671,50.671,0,0,1-15.39-9.5v22.156ZM761.347,606.1a27.227,27.227,0,0,1-12.516-3.072,25.81,25.81,0,0,1-9.734-8.471,24.348,24.348,0,0,0-7.139-6.889,26.189,26.189,0,0,0-8.993-3.537q5.377-5.586,16.873-8.565a86,86,0,0,1,21.509-2.979,87.075,87.075,0,0,1,21.6,2.979q11.589,2.979,16.966,8.565a26.189,26.189,0,0,0-8.993,3.537,24.337,24.337,0,0,0-7.139,6.889,25.805,25.805,0,0,1-9.735,8.471A27.594,27.594,0,0,1,761.347,606.1Zm-59.335-24.2a20.48,20.48,0,1,1,14.463-35,20.623,20.623,0,0,1,0,28.951A19.486,19.486,0,0,1,702.012,581.9Zm118.67,0a20.48,20.48,0,1,1,14.463-35,20.625,20.625,0,0,1,0,28.951A19.49,19.49,0,0,1,820.682,581.9Zm-59.335-22.342a20.48,20.48,0,1,1,14.463-35,20.625,20.625,0,0,1,0,28.951A19.49,19.49,0,0,1,761.347,559.553Z" fill="none" stroke="#1f4385" stroke-width="3"/>
  </g>
</svg>
